<svg viewBox="0 0 28 27" xmlns="http://www.w3.org/2000/svg" xmlns:xlink="http://www.w3.org/1999/xlink">
  <defs>
    <path id="a" d="M0 0h28v27H0z"/>
  </defs>
  <g fill="none" fill-rule="evenodd">
    <mask id="b" fill="#fff">
      <use xlink:href="#a"/>
    </mask>
    <path d="M14 0C6.27 0 0 6.197 0 13.841c0 6.116 4.011 11.304 9.575 13.135.699.128.925-.302.925-.666v-2.577c-3.894.838-4.705-1.633-4.705-1.633-.637-1.6-1.555-2.026-1.555-2.026-1.27-.859.096-.84.096-.84 1.406.097 2.146 1.426 2.146 1.426 1.248 2.116 3.275 1.505 4.074 1.15.125-.894.488-1.505.889-1.85-3.11-.352-6.378-1.538-6.378-6.84 0-1.513.547-2.747 1.442-3.716-.145-.35-.624-1.758.136-3.663 0 0 1.176-.372 3.851 1.418A13.571 13.571 0 0 1 14 6.693c1.19.006 2.388.16 3.507.466 2.673-1.79 3.846-1.418 3.846-1.418.762 1.906.283 3.315.138 3.663.899.969 1.441 2.204 1.441 3.715 0 5.316-3.275 6.487-6.392 6.83.502.429.96 1.27.96 2.563v3.798c0 .368.224.8.934.664C23.994 25.142 28 19.954 28 13.841 28 6.197 21.732 0 14 0" fill="#FFF" mask="url(#b)"/>
  </g>
</svg>